<svg width="131" height="20" viewBox="0 0 131 20" fill="none" xmlns="http://www.w3.org/2000/svg">
<g filter="url(#filter0_d_128_44)">
<path d="M21.048 16C20.2267 16 19.6133 15.808 19.208 15.424C18.8027 15.04 18.6 14.4533 18.6 13.664V8.704H15.8V7.52H18.6V5.28H19.944V7.52H23.32V8.704H19.944V13.664C19.944 14.0587 20.0347 14.352 20.216 14.544C20.3973 14.7253 20.6747 14.816 21.048 14.816H23.32V16H21.048ZM29.3938 16.192C28.6151 16.192 27.9324 16.0107 27.3458 15.648C26.7698 15.2853 26.3218 14.7733 26.0018 14.112C25.6818 13.44 25.5218 12.656 25.5218 11.76C25.5218 10.864 25.6818 10.0853 26.0018 9.424C26.3218 8.752 26.7698 8.23467 27.3458 7.872C27.9324 7.50933 28.6151 7.328 29.3938 7.328C30.1618 7.328 30.8391 7.50933 31.4258 7.872C32.0124 8.23467 32.4658 8.752 32.7858 9.424C33.1058 10.0853 33.2658 10.864 33.2658 11.76C33.2658 12.656 33.1058 13.44 32.7858 14.112C32.4658 14.7733 32.0124 15.2853 31.4258 15.648C30.8391 16.0107 30.1618 16.192 29.3938 16.192ZM29.3938 14.912C30.1724 14.912 30.7751 14.6347 31.2018 14.08C31.6391 13.5147 31.8578 12.7413 31.8578 11.76C31.8578 10.7787 31.6391 10.0107 31.2018 9.456C30.7751 8.89067 30.1724 8.608 29.3938 8.608C28.6151 8.608 28.0071 8.88533 27.5698 9.44C27.1431 9.99467 26.9298 10.768 26.9298 11.76C26.9298 12.752 27.1431 13.5253 27.5698 14.08C28.0071 14.6347 28.6151 14.912 29.3938 14.912ZM35.6275 4.64H36.9715V12.08L41.0995 7.52H42.8915L39.5475 11.12L43.0515 16H41.4195L38.6355 12.032L36.9715 13.792V16H35.6275V4.64ZM48.7253 16.192C47.9359 16.192 47.2479 16.0107 46.6613 15.648C46.0746 15.2853 45.6213 14.7733 45.3013 14.112C44.9919 13.44 44.8372 12.656 44.8372 11.76C44.8372 10.8747 44.9919 10.096 45.3013 9.424C45.6213 8.752 46.0693 8.23467 46.6453 7.872C47.2213 7.50933 47.8933 7.328 48.6613 7.328C49.3973 7.328 50.0479 7.504 50.6133 7.856C51.1893 8.19733 51.6319 8.704 51.9413 9.376C52.2613 10.048 52.4213 10.848 52.4213 11.776V12.176H46.2453C46.2879 13.072 46.5226 13.7547 46.9493 14.224C47.3866 14.6827 47.9786 14.912 48.7253 14.912C49.2693 14.912 49.7173 14.7893 50.0693 14.544C50.4319 14.288 50.6879 13.936 50.8373 13.488L52.2773 13.6C52.0533 14.3787 51.6213 15.008 50.9813 15.488C50.3519 15.9573 49.5999 16.192 48.7253 16.192ZM50.9493 10.992C50.8853 10.2027 50.6506 9.61067 50.2453 9.216C49.8399 8.81067 49.3119 8.608 48.6613 8.608C47.9999 8.608 47.4559 8.81067 47.0293 9.216C46.6133 9.62133 46.3519 10.2133 46.2453 10.992H50.9493ZM54.911 7.52H56.143L56.175 9.04C56.3883 8.47467 56.7243 8.048 57.183 7.76C57.6417 7.472 58.175 7.328 58.783 7.328C59.711 7.328 60.415 7.62667 60.895 8.224C61.3857 8.82133 61.631 9.59467 61.631 10.544V16H60.287V10.928C60.287 10.128 60.143 9.52533 59.855 9.12C59.5777 8.71467 59.1243 8.512 58.495 8.512C57.823 8.512 57.279 8.72533 56.863 9.152C56.4577 9.568 56.255 10.16 56.255 10.928V16H54.911V7.52ZM67.7208 18.592C66.8141 18.592 66.0408 18.368 65.4008 17.92C64.7608 17.472 64.3501 16.8747 64.1688 16.128L65.5768 16.032C65.7154 16.4587 65.9501 16.7787 66.2808 16.992C66.6114 17.2053 67.0914 17.312 67.7208 17.312C68.4994 17.312 69.0914 17.1573 69.4968 16.848C69.9021 16.5387 70.1048 16.0747 70.1048 15.456V14.08C69.8914 14.528 69.5608 14.8853 69.1128 15.152C68.6754 15.4187 68.1794 15.552 67.6248 15.552C66.9101 15.552 66.2701 15.3813 65.7048 15.04C65.1501 14.688 64.7128 14.2027 64.3928 13.584C64.0834 12.9547 63.9288 12.24 63.9288 11.44C63.9288 10.64 64.0834 9.93067 64.3928 9.312C64.7021 8.68267 65.1288 8.19733 65.6728 7.856C66.2274 7.504 66.8568 7.328 67.5608 7.328C68.1581 7.328 68.6914 7.46667 69.1608 7.744C69.6408 8.02133 69.9768 8.39467 70.1688 8.864V7.52H71.4488V15.424C71.4488 16.416 71.1181 17.1893 70.4568 17.744C69.7954 18.3093 68.8834 18.592 67.7208 18.592ZM67.6888 14.272C68.4354 14.272 69.0221 14.0107 69.4488 13.488C69.8861 12.9653 70.1048 12.256 70.1048 11.36C70.1048 10.5173 69.8861 9.85067 69.4488 9.36C69.0114 8.85867 68.4248 8.608 67.6888 8.608C66.9528 8.608 66.3768 8.864 65.9608 9.376C65.5448 9.87733 65.3368 10.5653 65.3368 11.44C65.3368 12.3147 65.5448 13.008 65.9608 13.52C66.3874 14.0213 66.9634 14.272 67.6888 14.272ZM76.2425 16.192C75.4318 16.192 74.7598 15.9787 74.2265 15.552C73.6932 15.1253 73.4265 14.5707 73.4265 13.888C73.4265 13.1733 73.6398 12.6133 74.0665 12.208C74.4932 11.8027 75.1758 11.5093 76.1145 11.328L78.9625 10.752C78.9625 10.0373 78.8025 9.504 78.4825 9.152C78.1625 8.78933 77.6932 8.608 77.0745 8.608C76.4985 8.608 76.0398 8.736 75.6985 8.992C75.3678 9.248 75.1385 9.62667 75.0105 10.128L73.5865 10.016C73.7465 9.19467 74.1305 8.544 74.7385 8.064C75.3572 7.57333 76.1358 7.328 77.0745 7.328C78.0985 7.328 78.8932 7.63733 79.4585 8.256C80.0238 8.864 80.3065 9.70667 80.3065 10.784V14.304C80.3065 14.496 80.3438 14.6293 80.4185 14.704C80.5038 14.7787 80.6372 14.816 80.8185 14.816H81.3625V16C81.1918 16.0213 80.9572 16.032 80.6585 16.032C80.1892 16.032 79.8158 15.936 79.5385 15.744C79.2718 15.5413 79.0958 15.2267 79.0105 14.8C78.7758 15.216 78.4078 15.552 77.9065 15.808C77.4052 16.064 76.8505 16.192 76.2425 16.192ZM76.3705 15.008C77.2132 15.008 77.8532 14.7947 78.2905 14.368C78.7385 13.9413 78.9625 13.3653 78.9625 12.64V11.904L76.3705 12.416C75.8052 12.5227 75.4052 12.6827 75.1705 12.896C74.9465 13.1093 74.8345 13.3973 74.8345 13.76C74.8345 14.1547 74.9678 14.464 75.2345 14.688C75.5118 14.9013 75.8905 15.008 76.3705 15.008ZM83.4683 14.656L88.8443 8.704H83.6283V7.52H90.3163V8.864L84.9403 14.816H90.4443V16H83.4683V14.656ZM96.694 16.192C95.9047 16.192 95.2167 16.0107 94.63 15.648C94.0433 15.2853 93.59 14.7733 93.27 14.112C92.9607 13.44 92.806 12.656 92.806 11.76C92.806 10.8747 92.9607 10.096 93.27 9.424C93.59 8.752 94.038 8.23467 94.614 7.872C95.19 7.50933 95.862 7.328 96.63 7.328C97.366 7.328 98.0167 7.504 98.582 7.856C99.158 8.19733 99.6007 8.704 99.91 9.376C100.23 10.048 100.39 10.848 100.39 11.776V12.176H94.214C94.2567 13.072 94.4913 13.7547 94.918 14.224C95.3553 14.6827 95.9473 14.912 96.694 14.912C97.238 14.912 97.686 14.7893 98.038 14.544C98.4007 14.288 98.6567 13.936 98.806 13.488L100.246 13.6C100.022 14.3787 99.59 15.008 98.95 15.488C98.3207 15.9573 97.5687 16.192 96.694 16.192ZM98.918 10.992C98.854 10.2027 98.6193 9.61067 98.214 9.216C97.8087 8.81067 97.2807 8.608 96.63 8.608C95.9687 8.608 95.4247 8.81067 94.998 9.216C94.582 9.62133 94.3207 10.2133 94.214 10.992H98.918ZM105.184 14.08H107.104V16H105.184V14.08ZM112.218 14.816H115.626V8.704H112.378V7.52H116.97V14.816H119.898V16H112.218V14.816ZM115.498 4.624H116.906V6.192H115.498V4.624ZM125.331 16.192C124.553 16.192 123.87 16.0107 123.283 15.648C122.707 15.2853 122.259 14.7733 121.939 14.112C121.619 13.44 121.459 12.656 121.459 11.76C121.459 10.864 121.619 10.0853 121.939 9.424C122.259 8.752 122.707 8.23467 123.283 7.872C123.87 7.50933 124.553 7.328 125.331 7.328C126.099 7.328 126.777 7.50933 127.363 7.872C127.95 8.23467 128.403 8.752 128.723 9.424C129.043 10.0853 129.203 10.864 129.203 11.76C129.203 12.656 129.043 13.44 128.723 14.112C128.403 14.7733 127.95 15.2853 127.363 15.648C126.777 16.0107 126.099 16.192 125.331 16.192ZM125.331 14.912C126.11 14.912 126.713 14.6347 127.139 14.08C127.577 13.5147 127.795 12.7413 127.795 11.76C127.795 10.7787 127.577 10.0107 127.139 9.456C126.713 8.89067 126.11 8.608 125.331 8.608C124.553 8.608 123.945 8.88533 123.507 9.44C123.081 9.99467 122.867 10.768 122.867 11.76C122.867 12.752 123.081 13.5253 123.507 14.08C123.945 14.6347 124.553 14.912 125.331 14.912Z" fill="white"/>
</g>
<g filter="url(#filter1_d_128_44)">
<rect width="5" height="5" transform="matrix(-1 0 0 1 6 6)" fill="white"/>
</g>
<g filter="url(#filter2_d_128_44)">
<rect width="2" height="5.49187" transform="matrix(-0.707107 0.707107 0.707107 0.707107 7.04047 11)" fill="white"/>
</g>
<defs>
<filter id="filter0_d_128_44" x="14.8" y="3.62399" width="115.403" height="15.968" filterUnits="userSpaceOnUse" color-interpolation-filters="sRGB">
<feFlood flood-opacity="0" result="BackgroundImageFix"/>
<feColorMatrix in="SourceAlpha" type="matrix" values="0 0 0 0 0 0 0 0 0 0 0 0 0 0 0 0 0 0 127 0" result="hardAlpha"/>
<feOffset/>
<feGaussianBlur stdDeviation="0.5"/>
<feComposite in2="hardAlpha" operator="out"/>
<feColorMatrix type="matrix" values="0 0 0 0 1 0 0 0 0 1 0 0 0 0 1 0 0 0 1 0"/>
<feBlend mode="normal" in2="BackgroundImageFix" result="effect1_dropShadow_128_44"/>
<feBlend mode="normal" in="SourceGraphic" in2="effect1_dropShadow_128_44" result="shape"/>
</filter>
<filter id="filter1_d_128_44" x="0" y="5" width="7" height="7" filterUnits="userSpaceOnUse" color-interpolation-filters="sRGB">
<feFlood flood-opacity="0" result="BackgroundImageFix"/>
<feColorMatrix in="SourceAlpha" type="matrix" values="0 0 0 0 0 0 0 0 0 0 0 0 0 0 0 0 0 0 127 0" result="hardAlpha"/>
<feOffset/>
<feGaussianBlur stdDeviation="0.5"/>
<feComposite in2="hardAlpha" operator="out"/>
<feColorMatrix type="matrix" values="0 0 0 0 1 0 0 0 0 1 0 0 0 0 1 0 0 0 1 0"/>
<feBlend mode="normal" in2="BackgroundImageFix" result="effect1_dropShadow_128_44"/>
<feBlend mode="normal" in="SourceGraphic" in2="effect1_dropShadow_128_44" result="shape"/>
</filter>
<filter id="filter2_d_128_44" x="4.62628" y="10" width="7.29755" height="7.29755" filterUnits="userSpaceOnUse" color-interpolation-filters="sRGB">
<feFlood flood-opacity="0" result="BackgroundImageFix"/>
<feColorMatrix in="SourceAlpha" type="matrix" values="0 0 0 0 0 0 0 0 0 0 0 0 0 0 0 0 0 0 127 0" result="hardAlpha"/>
<feOffset/>
<feGaussianBlur stdDeviation="0.5"/>
<feComposite in2="hardAlpha" operator="out"/>
<feColorMatrix type="matrix" values="0 0 0 0 1 0 0 0 0 1 0 0 0 0 1 0 0 0 1 0"/>
<feBlend mode="normal" in2="BackgroundImageFix" result="effect1_dropShadow_128_44"/>
<feBlend mode="normal" in="SourceGraphic" in2="effect1_dropShadow_128_44" result="shape"/>
</filter>
</defs>
</svg>
