<svg width="380" height="76" viewBox="0 0 380 76" fill="none" xmlns="http://www.w3.org/2000/svg">
<path d="M70.2847 60C67.1225 60 64.7612 59.2608 63.2007 57.7824C61.6401 56.304 60.8599 54.0453 60.8599 51.0064V31.9104H50.0799V27.352H60.8599V18.728H66.0343V27.352H79.0319V31.9104H66.0343V51.0064C66.0343 52.5259 66.3833 53.6552 67.0815 54.3944C67.7796 55.0925 68.8473 55.4416 70.2847 55.4416H79.0319V60H70.2847ZM102.416 60.7392C99.418 60.7392 96.7897 60.0411 94.531 58.6448C92.3134 57.2485 90.5886 55.2773 89.3566 52.7312C88.1246 50.144 87.5086 47.1256 87.5086 43.676C87.5086 40.2264 88.1246 37.2285 89.3566 34.6824C90.5886 32.0952 92.3134 30.1035 94.531 28.7072C96.7897 27.3109 99.418 26.6128 102.416 26.6128C105.373 26.6128 107.98 27.3109 110.239 28.7072C112.498 30.1035 114.243 32.0952 115.475 34.6824C116.707 37.2285 117.323 40.2264 117.323 43.676C117.323 47.1256 116.707 50.144 115.475 52.7312C114.243 55.2773 112.498 57.2485 110.239 58.6448C107.98 60.0411 105.373 60.7392 102.416 60.7392ZM102.416 55.8112C105.414 55.8112 107.734 54.7435 109.377 52.608C111.06 50.4315 111.902 47.4541 111.902 43.676C111.902 39.8979 111.06 36.9411 109.377 34.8056C107.734 32.6291 105.414 31.5408 102.416 31.5408C99.418 31.5408 97.0772 32.6085 95.3934 34.744C93.7508 36.8795 92.9294 39.8568 92.9294 43.676C92.9294 47.4952 93.7508 50.4725 95.3934 52.608C97.0772 54.7435 99.418 55.8112 102.416 55.8112ZM126.416 16.264H131.59V44.908L147.483 27.352H154.382L141.508 41.212L154.998 60H148.715L137.997 44.7232L131.59 51.4992V60H126.416V16.264ZM176.842 60.7392C173.803 60.7392 171.154 60.0411 168.896 58.6448C166.637 57.2485 164.892 55.2773 163.66 52.7312C162.469 50.144 161.873 47.1256 161.873 43.676C161.873 40.2675 162.469 37.2696 163.66 34.6824C164.892 32.0952 166.616 30.1035 168.834 28.7072C171.052 27.3109 173.639 26.6128 176.596 26.6128C179.429 26.6128 181.934 27.2904 184.111 28.6456C186.328 29.9597 188.033 31.9104 189.224 34.4976C190.456 37.0848 191.072 40.1648 191.072 43.7376V45.2776H167.294C167.458 48.7272 168.362 51.3555 170.004 53.1624C171.688 54.9283 173.967 55.8112 176.842 55.8112C178.936 55.8112 180.661 55.3389 182.016 54.3944C183.413 53.4088 184.398 52.0536 184.973 50.3288L190.517 50.76C189.655 53.7579 187.992 56.1808 185.528 58.0288C183.105 59.8357 180.21 60.7392 176.842 60.7392ZM185.404 40.7192C185.158 37.6803 184.255 35.4011 182.694 33.8816C181.134 32.3211 179.101 31.5408 176.596 31.5408C174.05 31.5408 171.955 32.3211 170.312 33.8816C168.711 35.4421 167.705 37.7213 167.294 40.7192H185.404ZM200.657 27.352H205.4L205.524 33.204C206.345 31.0275 207.639 29.3848 209.404 28.276C211.17 27.1672 213.224 26.6128 215.564 26.6128C219.137 26.6128 221.848 27.7627 223.696 30.0624C225.585 32.3621 226.529 35.3395 226.529 38.9944V60H221.355V40.4728C221.355 37.3928 220.8 35.0725 219.692 33.512C218.624 31.9515 216.879 31.1712 214.456 31.1712C211.868 31.1712 209.774 31.9925 208.172 33.6352C206.612 35.2368 205.832 37.516 205.832 40.4728V60H200.657V27.352ZM249.975 69.9792C246.484 69.9792 243.507 69.1168 241.043 67.392C238.579 65.6672 236.998 63.3675 236.3 60.4928L241.72 60.1232C242.254 61.7659 243.158 62.9979 244.431 63.8192C245.704 64.6405 247.552 65.0512 249.975 65.0512C252.973 65.0512 255.252 64.4557 256.812 63.2648C258.373 62.0739 259.153 60.2875 259.153 57.9056V52.608C258.332 54.3328 257.059 55.7085 255.334 56.7352C253.65 57.7619 251.741 58.2752 249.605 58.2752C246.854 58.2752 244.39 57.6181 242.213 56.304C240.078 54.9488 238.394 53.0803 237.162 50.6984C235.971 48.2755 235.376 45.524 235.376 42.444C235.376 39.364 235.971 36.6331 237.162 34.2512C238.353 31.8283 239.996 29.9597 242.09 28.6456C244.225 27.2904 246.648 26.6128 249.359 26.6128C251.659 26.6128 253.712 27.1467 255.519 28.2144C257.367 29.2821 258.66 30.7195 259.4 32.5264V27.352H264.328V57.7824C264.328 61.6016 263.055 64.5789 260.508 66.7144C257.962 68.8909 254.451 69.9792 249.975 69.9792ZM249.852 53.3472C252.726 53.3472 254.985 52.3411 256.628 50.3288C258.311 48.3165 259.153 45.5856 259.153 42.136C259.153 38.8917 258.311 36.3251 256.628 34.436C254.944 32.5059 252.685 31.5408 249.852 31.5408C247.018 31.5408 244.8 32.5264 243.199 34.4976C241.597 36.4277 240.796 39.0765 240.796 42.444C240.796 45.8115 241.597 48.4808 243.199 50.452C244.841 52.3821 247.059 53.3472 249.852 53.3472ZM282.784 60.7392C279.662 60.7392 277.075 59.9179 275.022 58.2752C272.969 56.6325 271.942 54.4971 271.942 51.8688C271.942 49.1173 272.763 46.9613 274.406 45.4008C276.049 43.8403 278.677 42.7109 282.291 42.0128L293.256 39.7952C293.256 37.0437 292.64 34.9904 291.408 33.6352C290.176 32.2389 288.369 31.5408 285.987 31.5408C283.769 31.5408 282.003 32.0336 280.689 33.0192C279.416 34.0048 278.533 35.4627 278.04 37.3928L272.558 36.9616C273.174 33.7995 274.652 31.2944 276.993 29.4464C279.375 27.5573 282.373 26.6128 285.987 26.6128C289.929 26.6128 292.989 27.8037 295.165 30.1856C297.342 32.5264 298.43 35.7707 298.43 39.9184V53.4704C298.43 54.2096 298.574 54.7229 298.861 55.0104C299.19 55.2979 299.703 55.4416 300.401 55.4416H302.496V60C301.838 60.0821 300.935 60.1232 299.785 60.1232C297.978 60.1232 296.541 59.7536 295.473 59.0144C294.446 58.2341 293.769 57.0227 293.44 55.38C292.537 56.9816 291.12 58.2752 289.19 59.2608C287.26 60.2464 285.124 60.7392 282.784 60.7392ZM283.276 56.1808C286.521 56.1808 288.985 55.3595 290.668 53.7168C292.393 52.0741 293.256 49.8565 293.256 47.064V44.2304L283.276 46.2016C281.1 46.6123 279.56 47.2283 278.656 48.0496C277.794 48.8709 277.363 49.9797 277.363 51.376C277.363 52.8955 277.876 54.0864 278.903 54.9488C279.97 55.7701 281.428 56.1808 283.276 56.1808ZM310.603 54.8256L331.3 31.9104H311.219V27.352H336.967V32.5264L316.27 55.4416H337.46V60H310.603V54.8256ZM361.522 60.7392C358.483 60.7392 355.834 60.0411 353.575 58.6448C351.317 57.2485 349.571 55.2773 348.339 52.7312C347.148 50.144 346.553 47.1256 346.553 43.676C346.553 40.2675 347.148 37.2696 348.339 34.6824C349.571 32.0952 351.296 30.1035 353.514 28.7072C355.731 27.3109 358.319 26.6128 361.275 26.6128C364.109 26.6128 366.614 27.2904 368.791 28.6456C371.008 29.9597 372.712 31.9104 373.903 34.4976C375.135 37.0848 375.751 40.1648 375.751 43.7376V45.2776H351.974C352.138 48.7272 353.042 51.3555 354.684 53.1624C356.368 54.9283 358.647 55.8112 361.522 55.8112C363.616 55.8112 365.341 55.3389 366.696 54.3944C368.092 53.4088 369.078 52.0536 369.653 50.3288L375.197 50.76C374.335 53.7579 372.671 56.1808 370.207 58.0288C367.784 59.8357 364.889 60.7392 361.522 60.7392ZM370.084 40.7192C369.838 37.6803 368.934 35.4011 367.374 33.8816C365.813 32.3211 363.78 31.5408 361.275 31.5408C358.729 31.5408 356.635 32.3211 354.992 33.8816C353.391 35.4421 352.384 37.7213 351.974 40.7192H370.084Z" fill="white"/>
<rect width="19.25" height="19.25" rx="9.625" transform="matrix(-0.965926 0.258819 0.258819 0.965926 32.594 40)" fill="white"/>
<rect width="17" height="17" transform="matrix(-1 0 0 1 17 23)" fill="white"/>
</svg>
